<svg width="214" height="70" viewBox="0 0 214 70" fill="none" xmlns="http://www.w3.org/2000/svg">
<path d="M214 0H0V70H214V0Z" fill="black"/>
<path d="M198.985 10.1548H120.228C117.777 10.4069 116.43 11.7796 116.192 14.2847V55.7493C116.427 58.2515 117.772 59.6191 120.206 59.8802H199.003C201.439 59.6191 202.783 58.2505 203.019 55.7493V14.2847C202.782 11.7796 201.433 10.4069 198.985 10.1548" fill="#F7971D"/>
<path d="M195.043 29.465C193.706 28.1123 191.911 27.2439 189.955 26.8447C189.395 26.7087 188.755 26.6116 188.043 26.5826C185.457 26.3675 182.135 27.315 180.591 28.5025L180.966 18.7939H174.677V48.8521H180.519V47.1963C181.865 48.1898 184.028 49.3433 187.321 49.3433C187.45 49.3433 187.572 49.3423 187.691 49.3403C187.776 49.3423 187.863 49.3433 187.948 49.3433C190.708 49.3433 193.055 48.3389 194.986 46.3299C196.918 44.319 197.884 41.4576 197.884 37.7399C197.884 34.1442 196.936 31.3869 195.043 29.465ZM189.974 43.1624C188.997 44.2489 187.815 44.7912 186.427 44.7912C184.62 44.7912 183.174 44.0258 182.085 42.4951C181.31 41.4156 180.921 39.7488 180.921 37.4928C180.921 35.3057 181.421 33.676 182.42 32.6035C183.42 31.531 184.673 30.9937 186.18 30.9937C187.717 30.9937 188.978 31.544 189.963 32.6435C190.947 33.744 191.44 35.5388 191.44 38.025C191.44 40.3641 190.951 42.0749 189.974 43.1624ZM164.542 36.2622C164.542 39.3786 164.386 41.3366 164.072 42.1369C163.759 42.9363 163.177 43.6066 162.326 44.1449C161.476 44.6862 160.513 44.9553 159.44 44.9553C158.5 44.9553 157.723 44.7542 157.112 44.351C156.5 43.9478 156.077 43.4005 155.847 42.7102C155.616 42.0199 155.501 40.145 155.501 37.0816V27.0768H149.213V40.8553C149.213 42.9053 149.496 44.5111 150.063 45.6736C150.629 46.8352 151.547 47.7376 152.815 48.3799C154.083 49.0222 155.515 49.3433 157.112 49.3433C157.351 49.3433 157.588 49.3353 157.823 49.3203C157.833 49.3203 157.835 49.3203 157.841 49.3183C161.843 49.2123 163.928 47.5495 164.989 46.453V48.8511H170.829V27.0768H164.542V36.2622ZM144.023 29.2099C143.433 28.4455 142.557 27.8162 141.394 27.324C140.342 26.8788 139.174 26.6376 137.89 26.5946C137.868 26.5936 137.849 26.5916 137.827 26.5906C135.176 26.4616 131.787 27.1699 130.204 28.5646V18.7939H123.917V48.8511H130.204V37.945C130.204 36.1131 130.396 34.7285 130.776 33.793C131.157 32.8556 131.756 32.1552 132.577 31.69C133.397 31.2268 134.329 30.9937 135.375 30.9937C136.284 30.9937 137.043 31.1748 137.645 31.537C138.249 31.8991 138.672 32.3884 138.91 33.0026C139.148 33.6189 139.268 35.0666 139.268 37.3487V48.8511H145.556V36.0781C145.556 34.1242 145.447 32.6815 145.231 31.7531C145.015 30.8216 144.611 29.9752 144.023 29.2099Z" fill="black"/>
<path d="M11.6241 48V21.8182H22.4395C24.3997 21.8182 26.0914 22.2017 27.5147 22.9688C28.9466 23.7273 30.0502 24.7884 30.8258 26.152C31.6014 27.5071 31.9892 29.0838 31.9892 30.8821C31.9892 32.6889 31.5929 34.2699 30.8002 35.625C30.0162 36.9716 28.8954 38.0156 27.438 38.7571C25.9806 39.4986 24.2505 39.8693 22.2477 39.8693H15.5744V34.8835H21.0716C22.0261 34.8835 22.823 34.7173 23.4622 34.3849C24.1099 34.0526 24.6 33.5881 24.9324 32.9915C25.2647 32.3864 25.4309 31.6832 25.4309 30.8821C25.4309 30.0724 25.2647 29.3736 24.9324 28.7855C24.6 28.1889 24.1099 27.7287 23.4622 27.4048C22.8145 27.081 22.0176 26.919 21.0716 26.919H17.9522V48H11.6241ZM35.1085 48V28.3636H41.3599V48H35.1085ZM38.2406 26.0753C37.3627 26.0753 36.6085 25.7855 35.9778 25.206C35.3471 24.6179 35.0318 23.9105 35.0318 23.0838C35.0318 22.2656 35.3471 21.5668 35.9778 20.9872C36.6085 20.3991 37.3627 20.1051 38.2406 20.1051C39.127 20.1051 39.8812 20.3991 40.5034 20.9872C41.1341 21.5668 41.4494 22.2656 41.4494 23.0838C41.4494 23.9105 41.1341 24.6179 40.5034 25.206C39.8812 25.7855 39.127 26.0753 38.2406 26.0753ZM45.3901 48V44.4332L54.4924 33.3494V33.2216H45.7097V28.3636H61.9455V32.2756L53.508 43.0142V43.142H62.2523V48H45.3901ZM66.3432 48V44.4332L75.4455 33.3494V33.2216H66.6628V28.3636H82.8986V32.2756L74.4611 43.0142V43.142H83.2054V48H66.3432ZM92.7807 48.3324C91.5279 48.3324 90.4157 48.1236 89.4441 47.706C88.481 47.2798 87.7182 46.6406 87.1557 45.7884C86.6017 44.9276 86.3248 43.8494 86.3248 42.554C86.3248 41.4631 86.5165 40.5426 86.9 39.7926C87.2836 39.0426 87.812 38.4332 88.4853 37.9645C89.1586 37.4957 89.9341 37.142 90.812 36.9034C91.6898 36.6562 92.6273 36.4901 93.6245 36.4048C94.7409 36.3026 95.6401 36.196 96.3219 36.0852C97.0037 35.9659 97.498 35.7997 97.8049 35.5866C98.1202 35.3651 98.2779 35.054 98.2779 34.6534V34.5895C98.2779 33.9332 98.052 33.4261 97.6003 33.0682C97.1486 32.7102 96.5392 32.5312 95.7722 32.5312C94.9455 32.5312 94.2807 32.7102 93.7779 33.0682C93.275 33.4261 92.9554 33.9205 92.8191 34.5511L87.0534 34.3466C87.2239 33.1534 87.6628 32.0881 88.3702 31.1506C89.0861 30.2045 90.0662 29.4631 91.3105 28.9261C92.5634 28.3807 94.0676 28.108 95.8233 28.108C97.0762 28.108 98.231 28.2571 99.2878 28.5554C100.345 28.8452 101.265 29.2713 102.049 29.8338C102.833 30.3878 103.438 31.0696 103.865 31.8793C104.299 32.6889 104.517 33.6136 104.517 34.6534V48H98.6358V45.2642H98.4824C98.133 45.929 97.6855 46.4915 97.1401 46.9517C96.6032 47.4119 95.9682 47.7571 95.2353 47.9872C94.5108 48.2173 93.6926 48.3324 92.7807 48.3324ZM94.7111 44.2415C95.3844 44.2415 95.9895 44.1051 96.5265 43.8324C97.0719 43.5597 97.5066 43.1847 97.8304 42.7074C98.1543 42.2216 98.3162 41.6591 98.3162 41.0199V39.1534C98.1373 39.2472 97.9199 39.3324 97.6642 39.4091C97.4171 39.4858 97.1444 39.5582 96.8461 39.6264C96.5478 39.6946 96.2409 39.7543 95.9256 39.8054C95.6103 39.8565 95.3077 39.9034 95.0179 39.946C94.4299 40.0398 93.927 40.1847 93.5094 40.3807C93.1003 40.5767 92.785 40.8324 92.5634 41.1477C92.3503 41.4545 92.2438 41.821 92.2438 42.2472C92.2438 42.8949 92.4739 43.3892 92.9341 43.7301C93.4029 44.071 93.9952 44.2415 94.7111 44.2415Z" fill="white"/>
</svg>
